<svg width="200" height="200" xmlns="http://www.w3.org/2000/svg">

 <g>
  <title>background</title>
  <rect fill="none" id="canvas_background" height="402" width="582" y="-1" x="-1"/>
 </g>
 <g>
  <title>Layer 1</title>
  <path fill="#0000bf" id="svg_2" d="m98.27326,164.216851c-34.4,0 -62.4,-28 -62.4,-62.4s28,-62.4 62.4,-62.4s62.4,28 62.4,62.4c-0.1,34.4 -28,62.4 -62.4,62.4zm0,-117.7c-30.5,0 -55.3,24.8 -55.3,55.3s24.8,55.3 55.3,55.3s55.3,-24.8 55.3,-55.3s-24.8,-55.3 -55.3,-55.3z"/>
  <path fill="#0000bf" id="svg_3" d="m99,148.1c-26.5,0 -48.1,-21.6 -48.1,-48.1s21.6,-48.1 48.1,-48.1s48.1,21.6 48.1,48.1s-21.6,48.1 -48.1,48.1zm0,-89.2c-22.6,0 -41.1,18.4 -41.1,41.1s18.4,41.1 41.1,41.1s41,-18.5 41,-41.1s-18.4,-41.1 -41,-41.1z"/>
  <path fill="#0000bf" id="svg_4" d="m99,134.5c-19,0 -34.5,-15.5 -34.5,-34.5s15.5,-34.5 34.5,-34.5s34.5,15.5 34.5,34.5s-15.5,34.5 -34.5,34.5zm0,-62c-15.2,0 -27.5,12.3 -27.5,27.5s12.3,27.5 27.5,27.5s27.5,-12.3 27.5,-27.5s-12.4,-27.5 -27.5,-27.5z"/>
  <path fill="#0000bf" id="svg_5" d="m99.36337,119.6c-10.8,0 -19.6,-8.8 -19.6,-19.6s8.8,-19.6 19.6,-19.6s19.6,8.8 19.6,19.6s-8.8,19.6 -19.6,19.6zm0,-32.2c-6.9,0 -12.6,5.6 -12.6,12.6c0,6.9 5.6,12.6 12.6,12.6c6.9,0 12.6,-5.6 12.6,-12.6c-0.1,-6.9 -5.7,-12.6 -12.6,-12.6z"/>
  <path fill="#0000bf" id="svg_6" d="m99.36337,101.8c-0.7,0 -1.3,-0.4 -1.6,-1.1c-0.4,-0.9 0,-1.9 0.9,-2.3l64.4,-27.7c0.9,-0.4 1.9,0 2.3,0.9c0.4,0.9 0,1.9 -0.9,2.3l-64.4,27.7c-0.2,0.2 -0.5,0.2 -0.7,0.2z"/>
  <path fill="#0000bf" id="svg_7" d="m99,104.8c-2.7,0 -4.8,-2.2 -4.8,-4.8s2.2,-4.8 4.8,-4.8c2.7,0 4.8,2.2 4.8,4.8s-2.2,4.8 -4.8,4.8zm0,-6.1c-0.7,0 -1.3,0.6 -1.3,1.3s0.6,1.3 1.3,1.3c0.7,0 1.3,-0.6 1.3,-1.3s-0.6,-1.3 -1.3,-1.3z"/>
  <path fill="#0000bf" id="svg_8" d="m170,77.1c-4.5,0 -8.1,-3.6 -8.1,-8.1s3.6,-8.1 8.1,-8.1s8.1,3.6 8.1,8.1s-3.6,8.1 -8.1,8.1zm0,-9.2c-0.6,0 -1.1,0.5 -1.1,1.1s0.5,1.1 1.1,1.1s1.1,-0.5 1.1,-1.1s-0.5,-1.1 -1.1,-1.1z"/>
 </g>
</svg>