<?xml version="1.0" ?><svg id="Layer_1" style="enable-background:new 0 0 74 74;" version="1.1" viewBox="0 0 74 74" xml:space="preserve" xmlns="http://www.w3.org/2000/svg" xmlns:xlink="http://www.w3.org/1999/xlink"><style type="text/css">
	.st0{fill:#2B3033;}
</style><g><path class="st0" d="M37.3,28.7c0.3-0.7,0.7-1.4,0.9-2.2c0.9-0.4,1.6-1.2,1.8-2.2c0.3-1.2,0.3-2.4,0.1-3.5   c-0.2-0.9-0.8-1.7-1.5-2.1c-1.3-5.8-5.9-5.8-8.1-5.8c-2.3,0-6.9,0-8.1,5.8c-0.1,0.1-0.2,0.1-0.3,0.2c-0.6,0.5-1,1.2-1.1,1.9   c-0.2,1.1-0.2,2.2,0,3.3c0.2,1.1,0.9,1.9,1.8,2.3c0.3,0.8,0.6,1.6,0.9,2.3c-5.2,1.6-8.2,5.6-9.1,11.6c-0.1,0.9,0.3,1.7,1.2,2.1   c4.9,2.2,9.9,3.3,14.8,3.3s9.9-1.1,14.8-3.3c0.8-0.4,1.3-1.2,1.2-2.1C45.5,34.2,42.5,30.3,37.3,28.7z M18.8,39.4   c1.1-4.5,3.7-6.8,8.5-7.4c0.8-0.1,1.4-0.6,1.6-1.3c0.2-0.7,0.1-1.5-0.5-2.1c-0.9-0.9-1.7-2.4-2.2-4.3c-0.2-0.7-0.8-1.3-1.5-1.4   c0-0.3,0-0.5,0-0.8c0.7-0.2,1.2-0.9,1.3-1.6c0.4-3.2,1.5-3.5,4.4-3.5c2.9,0,4,0.3,4.4,3.5c0.1,0.8,0.7,1.4,1.4,1.6   c0,0.2,0,0.5,0,0.8c-0.7,0.2-1.3,0.7-1.5,1.4c-0.5,2-1.3,3.4-2.2,4.3c-0.5,0.5-0.7,1.3-0.5,2.1s0.9,1.2,1.6,1.3   c4.8,0.6,7.5,2.9,8.5,7.4C34.3,42.6,26.6,42.6,18.8,39.4z"/><path class="st0" d="M72.4,69.6L52.7,49.9c4.5-5.2,7.3-12,7.3-19.4C60,14.2,46.7,1,30.5,1S1,14.2,1,30.5S14.2,60,30.5,60   c7.4,0,14.2-2.8,19.4-7.3l19.7,19.7C70,72.8,70.5,73,71,73s1-0.2,1.4-0.6C73.2,71.6,73.2,70.4,72.4,69.6z M30.5,56   C16.4,56,5,44.5,5,30.5C5,16.4,16.4,5,30.5,5S56,16.4,56,30.5C56,44.5,44.5,56,30.5,56z"/></g></svg>